<svg id="surface9039635" xmlns="http://www.w3.org/2000/svg" width="36" height="36" viewBox="0 0 36 36">
  <path id="Path_1" data-name="Path 1" d="M6,10a4,4,0,0,1,4-4H38a4,4,0,0,1,4,4V38a4,4,0,0,1-4,4H10a4,4,0,0,1-4-4Zm0,0" transform="translate(-6 -6)" fill="#b388ff"/>
  <path id="Path_2" data-name="Path 2" d="M9,9V39H39V9ZM9,9" transform="translate(-6 -6)" fill="#170b40"/>
  <path id="Path_3" data-name="Path 3" d="M21.184,27.965H16.629l-.867,2.848H13L17.7,17H20.1L24.82,30.809H22.059Zm-3.855-2.3H20.48L18.9,20.488ZM30.145,31a4.663,4.663,0,0,1-1.953-.391,4.3,4.3,0,0,1-1.461-1.062,4.6,4.6,0,0,1-.918-1.578,5.85,5.85,0,0,1-.316-1.941V25.66A7.018,7.018,0,0,1,25.8,23.52a4.967,4.967,0,0,1,.875-1.672,3.955,3.955,0,0,1,1.375-1.1,4.44,4.44,0,0,1,3.6-.027,3.559,3.559,0,0,1,1.293,1.023,4.431,4.431,0,0,1,.789,1.59A7.547,7.547,0,0,1,34,25.4V26.57H28.035a2.969,2.969,0,0,0,.246.91,2.356,2.356,0,0,0,.476.7,2.084,2.084,0,0,0,.68.449,2.225,2.225,0,0,0,.875.16,2.909,2.909,0,0,0,1.262-.277,2.6,2.6,0,0,0,1-.871l1.23,1.508a3.73,3.73,0,0,1-.562.684,3.781,3.781,0,0,1-.8.594,4.412,4.412,0,0,1-1.035.418A4.754,4.754,0,0,1,30.145,31Zm-.285-8.422a1.553,1.553,0,0,0-.715.156,1.613,1.613,0,0,0-.527.438,2.359,2.359,0,0,0-.359.668,4.193,4.193,0,0,0-.2.863h3.48v-.219a3.082,3.082,0,0,0-.109-.758,1.719,1.719,0,0,0-.3-.609,1.391,1.391,0,0,0-.52-.4A1.835,1.835,0,0,0,29.859,22.578Zm0,0" transform="translate(-6 -6)" fill="#b388ff"/>
</svg>
