<svg id="icons8-adobe-animate" xmlns="http://www.w3.org/2000/svg" width="36" height="36" viewBox="0 0 36 36">
  <path id="Path_4" data-name="Path 4" d="M6,10a4,4,0,0,1,4-4H38a4,4,0,0,1,4,4V38a4,4,0,0,1-4,4H10a4,4,0,0,1-4-4Z" transform="translate(-6 -6)" fill="#ff3d00"/>
  <path id="Path_5" data-name="Path 5" d="M9,9V39H39V9Z" transform="translate(-6 -6)" fill="#330808"/>
  <path id="Path_6" data-name="Path 6" d="M21.049,28.135H16.963L16.169,31H13l4.636-14h2.741l4.667,14h-3.2Zm-3.433-2.356h2.771L19,20.789Z" transform="translate(-6 -6)" fill="#ff3d00"/>
  <path id="Path_7" data-name="Path 7" d="M28.621,20.2l.079,1.029A2.981,2.981,0,0,1,31.173,20q2.75,0,2.828,3.76V31H31.2V23.965a2.349,2.349,0,0,0-.271-1.284,1.066,1.066,0,0,0-.951-.4,1.3,1.3,0,0,0-1.182.76V31H26V20.2Z" transform="translate(-6 -6)" fill="#ff3d00"/>
</svg>
