<svg xmlns="http://www.w3.org/2000/svg" width="19.284" height="19.283" viewBox="0 0 19.284 19.283">
  <path id="Icon_awesome-behance-square" data-name="Icon awesome-behance-square" d="M8.028,13.484c0,.831-.6,1.093-1.343,1.093H4.743V12.3h1.98C7.524,12.3,8.028,12.636,8.028,13.484ZM7.7,9.942C7.7,9.18,7.107,9,6.452,9h-1.7v1.928H6.586C7.236,10.928,7.7,10.643,7.7,9.942Zm5.695,1a1.283,1.283,0,0,0-1.364,1.278H14.7A1.227,1.227,0,0,0,13.391,10.94Zm5.893-6.624V19.467a2.067,2.067,0,0,1-2.066,2.066H2.066A2.067,2.067,0,0,1,0,19.467V4.316A2.067,2.067,0,0,1,2.066,2.25H17.218A2.067,2.067,0,0,1,19.284,4.316ZM11.7,8.836h3.349V8.022H11.7ZM9.844,13.583a2.14,2.14,0,0,0-1.507-2.221A1.607,1.607,0,0,0,9.465,9.77c0-1.644-1.227-2.045-2.643-2.045h-3.9v8.264H6.934C8.437,15.981,9.844,15.262,9.844,13.583Zm6.513-.637A2.942,2.942,0,0,0,13.447,9.7a3,3,0,0,0-3.06,3.168,2.916,2.916,0,0,0,3.06,3.142A2.669,2.669,0,0,0,16.249,14H14.8a1.362,1.362,0,0,1-1.3.779,1.35,1.35,0,0,1-1.468-1.519h4.313C16.348,13.157,16.357,13.05,16.357,12.946Z" transform="translate(0 -2.25)" fill="#f6f6f6"/>
</svg>
