<svg id="figma" xmlns="http://www.w3.org/2000/svg" width="24.824" height="37.236" viewBox="0 0 24.824 37.236">
  <path id="Path_3416" data-name="Path 3416" d="M6.206,212.412a6.208,6.208,0,0,0,6.206-6.206V200H6.206a6.206,6.206,0,0,0,0,12.412Z" transform="translate(0 -175.176)" fill="#0acf83"/>
  <path id="Path_3417" data-name="Path 3417" d="M0,106.206A6.208,6.208,0,0,1,6.206,100h6.206v12.412H6.206A6.208,6.208,0,0,1,0,106.206Z" transform="translate(0 -87.588)" fill="#a259ff"/>
  <path id="Path_3418" data-name="Path 3418" d="M0,6.206A6.208,6.208,0,0,1,6.206,0h6.206V12.412H6.206A6.208,6.208,0,0,1,0,6.206Z" fill="#f24e1e"/>
  <path id="Path_3419" data-name="Path 3419" d="M100,0h6.206a6.206,6.206,0,0,1,0,12.412H100Z" transform="translate(-87.588)" fill="#ff7262"/>
  <path id="Path_3420" data-name="Path 3420" d="M112.412,106.206A6.206,6.206,0,1,1,106.206,100,6.208,6.208,0,0,1,112.412,106.206Z" transform="translate(-87.588 -87.588)" fill="#1abcfe"/>
</svg>
