<svg xmlns="http://www.w3.org/2000/svg" width="28.692" height="21.412" viewBox="0 0 28.692 21.412">
  <g id="Group_13" data-name="Group 13" transform="translate(-364.5 -35.5)">
    <path id="Line_7" data-name="Line 7" d="M26.692,1H0A1,1,0,0,1-1,0,1,1,0,0,1,0-1H26.692a1,1,0,0,1,1,1A1,1,0,0,1,26.692,1Z" transform="translate(365.5 36.5)" fill="#fff"/>
    <path id="Line_8" data-name="Line 8" d="M21.839,1H0A1,1,0,0,1-1,0,1,1,0,0,1,0-1H21.839a1,1,0,0,1,1,1A1,1,0,0,1,21.839,1Z" transform="translate(370.353 46.206)" fill="#fff"/>
    <path id="Line_9" data-name="Line 9" d="M15.773,1H0A1,1,0,0,1-1,0,1,1,0,0,1,0-1H15.773a1,1,0,0,1,1,1A1,1,0,0,1,15.773,1Z" transform="translate(376.419 55.912)" fill="#fff"/>
  </g>
</svg>
