<svg id="icons8-adobe-illustrator_1_" data-name="icons8-adobe-illustrator (1)" xmlns="http://www.w3.org/2000/svg" width="36" height="36" viewBox="0 0 36 36">
  <path id="Path_8" data-name="Path 8" d="M6,10a4,4,0,0,1,4-4H38a4,4,0,0,1,4,4V38a4,4,0,0,1-4,4H10a4,4,0,0,1-4-4Z" transform="translate(-6 -6)" fill="#ff5722"/>
  <path id="Path_9" data-name="Path 9" d="M9,9V39H39V9ZM23.691,31l-.762-2.91H19.013L18.252,31H15.215l4.443-14.219h2.627L26.758,31Zm7.159,0H28.077V20.434H30.85Zm-.3-12.246a1.5,1.5,0,0,1-2.6-1.055,1.43,1.43,0,0,1,.41-1.055,1.665,1.665,0,0,1,2.188,0,1.425,1.425,0,0,1,.41,1.055A1.46,1.46,0,0,1,30.552,18.754Z" transform="translate(-6 -6)" fill="#1c0802"/>
  <path id="Path_10" data-name="Path 10" d="M19.639,25.7H22.3l-1.328-5.068Z" transform="translate(-6 -6)" fill="#1c0802"/>
</svg>
