<svg id="icons8-adobe-indesign" xmlns="http://www.w3.org/2000/svg" width="36" height="36" viewBox="0 0 36 36">
  <path id="Path_14" data-name="Path 14" d="M5,10A4,4,0,0,1,9,6H37a4,4,0,0,1,4,4V38a4,4,0,0,1-4,4H9a4,4,0,0,1-4-4Z" transform="translate(-5 -6)" fill="#e91e63"/>
  <path id="Path_15" data-name="Path 15" d="M26.283,22.553a1.188,1.188,0,0,0-1.113.615,4.8,4.8,0,0,0-.352,2.188v.732a5.047,5.047,0,0,0,.332,2.183,1.171,1.171,0,0,0,1.123.62,1.346,1.346,0,0,0,1.24-.732V23.335A1.315,1.315,0,0,0,26.283,22.553Z" transform="translate(-5 -6)" fill="#16020b"/>
  <path id="Path_16" data-name="Path 16" d="M8,9V39H38V9ZM20.141,31H17.27V16.781h2.871ZM30.3,31h-2.51l-.127-1.074a2.544,2.544,0,0,1-2.188,1.27,2.883,2.883,0,0,1-2.534-1.27,6.691,6.691,0,0,1-.894-3.73v-.8a6.9,6.9,0,0,1,.879-3.877,2.91,2.91,0,0,1,2.559-1.279,2.468,2.468,0,0,1,2.031,1.055V16H30.3V31Z" transform="translate(-5 -6)" fill="#16020b"/>
</svg>
