<svg xmlns="http://www.w3.org/2000/svg" width="19.294" height="19.29" viewBox="0 0 19.294 19.29">
  <path id="Icon_awesome-instagram" data-name="Icon awesome-instagram" d="M9.644,6.937a4.946,4.946,0,1,0,4.946,4.946A4.938,4.938,0,0,0,9.644,6.937Zm0,8.161a3.215,3.215,0,1,1,3.215-3.215A3.221,3.221,0,0,1,9.644,15.1Zm6.3-8.363a1.154,1.154,0,1,1-1.154-1.154A1.151,1.151,0,0,1,15.946,6.735Zm3.276,1.171a5.709,5.709,0,0,0-1.558-4.042,5.746,5.746,0,0,0-4.042-1.558c-1.593-.09-6.366-.09-7.959,0A5.738,5.738,0,0,0,1.621,3.859,5.727,5.727,0,0,0,.063,7.9c-.09,1.593-.09,6.366,0,7.959A5.709,5.709,0,0,0,1.621,19.9,5.754,5.754,0,0,0,5.663,21.46c1.593.09,6.366.09,7.959,0A5.709,5.709,0,0,0,17.663,19.9a5.746,5.746,0,0,0,1.558-4.042c.09-1.593.09-6.362,0-7.954Zm-2.057,9.663A3.255,3.255,0,0,1,15.33,19.4c-1.27.5-4.283.387-5.686.387S5.223,19.9,3.958,19.4a3.255,3.255,0,0,1-1.834-1.834c-.5-1.27-.387-4.283-.387-5.686S1.625,7.462,2.124,6.2A3.255,3.255,0,0,1,3.958,4.363c1.27-.5,4.283-.387,5.686-.387s4.421-.112,5.686.387A3.255,3.255,0,0,1,17.164,6.2c.5,1.27.387,4.283.387,5.686S17.667,16.3,17.164,17.569Z" transform="translate(0.005 -2.238)" fill="#f6f6f6"/>
</svg>
