<svg id="surface9038951" xmlns="http://www.w3.org/2000/svg" width="36" height="36" viewBox="0 0 36 36">
  <path id="Path_17" data-name="Path 17" d="M6,10a4.013,4.013,0,0,1,4-4H38a4.013,4.013,0,0,1,4,4V38a4.013,4.013,0,0,1-4,4H10a4.013,4.013,0,0,1-4-4Zm0,0" transform="translate(-6 -6)" fill="#3498db"/>
  <path id="Path_18" data-name="Path 18" d="M9,9V39H39V9ZM25,31H17V17h3V28.6h5Zm7.2-7.9-.9-.1a1.353,1.353,0,0,0-1.5,1v7H27V20.4h2.6l.1,1.1a1.885,1.885,0,0,1,1.8-1.3,1.921,1.921,0,0,1,.8.1Zm0,0" transform="translate(-6 -6)" fill="#020f16"/>
</svg>
