<svg xmlns="http://www.w3.org/2000/svg" width="19.284" height="19.283" viewBox="0 0 19.284 19.283">
  <path id="Icon_awesome-linkedin" data-name="Icon awesome-linkedin" d="M17.906,2.25H1.373A1.383,1.383,0,0,0,0,3.64v16.5a1.383,1.383,0,0,0,1.373,1.39H17.906a1.387,1.387,0,0,0,1.377-1.39V3.64A1.387,1.387,0,0,0,17.906,2.25ZM5.828,18.779H2.97v-9.2H5.832v9.2ZM4.4,8.319A1.657,1.657,0,1,1,6.056,6.662,1.658,1.658,0,0,1,4.4,8.319Zm12.143,10.46H13.684V14.3c0-1.067-.022-2.441-1.485-2.441-1.489,0-1.717,1.162-1.717,2.363v4.554H7.623v-9.2h2.742v1.257H10.4a3.01,3.01,0,0,1,2.707-1.485c2.893,0,3.431,1.907,3.431,4.386Z" transform="translate(0 -2.25)" fill="#f6f6f6"/>
</svg>
