<svg xmlns="http://www.w3.org/2000/svg" width="35.978" height="35.978" viewBox="0 0 35.978 35.978">
  <g id="lunacy" transform="translate(-5.761 -6)">
    <path id="Path_3425" data-name="Path 3425" d="M5.761,13.5a7.5,7.5,0,0,1,7.5-7.5H34.239a7.5,7.5,0,0,1,7.5,7.5V34.478a7.5,7.5,0,0,1-7.5,7.5H13.261a7.5,7.5,0,0,1-7.5-7.5V13.5Z" fill="#199be2"/>
    <path id="Path_3426" data-name="Path 3426" d="M13.011,34.979V13H25v4.235l1.149-.427a5.353,5.353,0,0,0,3.156-3.156l.938-2.523.938,2.524a5.349,5.349,0,0,0,3.156,3.155l2.525.938-2.525.938a5.353,5.353,0,0,0-3.156,3.156l-.938,2.523L29.3,21.84a5.354,5.354,0,0,0-3.157-3.156L25,18.256V31.565l9.989-9.989v13.4Z" fill-rule="evenodd" opacity="0.05"/>
    <path id="Path_3427" data-name="Path 3427" d="M13.511,34.479V13.5H24.5V32.771l9.989-9.989v11.7H13.511ZM29.774,21.666a5.86,5.86,0,0,0-3.452-3.451l-1.26-.47,1.261-.468a5.856,5.856,0,0,0,3.451-3.45l.469-1.262.469,1.262a5.851,5.851,0,0,0,3.451,3.45l1.263.469-1.263.469a5.855,5.855,0,0,0-3.451,3.451l-.469,1.262Z" fill-rule="evenodd" opacity="0.07"/>
    <path id="Path_3428" data-name="Path 3428" d="M14.011,14H24V33.978H14.011ZM24,33.979l9.989-9.989v9.989Zm9.989-16.232A6.353,6.353,0,0,1,30.243,14,6.358,6.358,0,0,1,26.5,17.747a6.363,6.363,0,0,1,3.746,3.746A6.358,6.358,0,0,1,33.989,17.747Z" fill="#f9f9f9" fill-rule="evenodd"/>
  </g>
</svg>
