<svg xmlns="http://www.w3.org/2000/svg" xmlns:xlink="http://www.w3.org/1999/xlink" width="36" height="36" viewBox="0 0 36 36">
  <defs>
    <linearGradient id="linear-gradient" x1="-0.028" y1="0.703" x2="1.113" y2="0.852" gradientUnits="objectBoundingBox">
      <stop offset="0" stop-color="#0f6067"/>
      <stop offset="0.5" stop-color="#05abac"/>
      <stop offset="1" stop-color="#58bec4"/>
    </linearGradient>
    <linearGradient id="linear-gradient-2" x1="0.496" y1="-0.004" x2="0.855" y2="1.01" gradientUnits="objectBoundingBox">
      <stop offset="0" stop-color="#117c83"/>
      <stop offset="0.5" stop-color="#21b5b5"/>
      <stop offset="1" stop-color="#7ed4d4"/>
    </linearGradient>
    <linearGradient id="linear-gradient-3" x1="0.694" y1="1.22" x2="0.336" y2="0.361" gradientUnits="objectBoundingBox">
      <stop offset="0" stop-color="#9accd3"/>
      <stop offset="0.5" stop-color="#72aeb3"/>
      <stop offset="1" stop-color="#317d7f"/>
    </linearGradient>
    <linearGradient id="linear-gradient-4" x1="-0.205" y1="-0.615" x2="1.237" y2="-0.369" gradientUnits="objectBoundingBox">
      <stop offset="0" stop-color="#21626e"/>
      <stop offset="0.5" stop-color="#157c84"/>
      <stop offset="1" stop-color="#03a3a5"/>
    </linearGradient>
    <linearGradient id="linear-gradient-5" x1="0.976" y1="0.732" x2="-0.976" y2="0.267" gradientUnits="objectBoundingBox">
      <stop offset="0" stop-color="#0b7c81"/>
      <stop offset="0.5" stop-color="#068d90"/>
      <stop offset="1" stop-color="#16b1b1"/>
    </linearGradient>
    <linearGradient id="linear-gradient-6" x1="-6.564" y1="-0.59" x2="8.553" y2="-0.193" gradientUnits="objectBoundingBox">
      <stop offset="0" stop-color="#0a8a8f"/>
      <stop offset="0.5" stop-color="#0f7c82"/>
      <stop offset="1" stop-color="#1a5964"/>
    </linearGradient>
    <linearGradient id="linear-gradient-7" x1="1.056" y1="0.421" x2="-0.048" y2="0.592" gradientUnits="objectBoundingBox">
      <stop offset="0" stop-color="#256a77"/>
      <stop offset="0.5" stop-color="#0d9499"/>
      <stop offset="1" stop-color="#06a0a2"/>
    </linearGradient>
  </defs>
  <g id="maya" transform="translate(-721 -2446)">
    <rect id="Rectangle_24" data-name="Rectangle 24" width="36" height="36" rx="2" transform="translate(721 2446)" fill="#fff"/>
    <g id="maya-2017" transform="translate(727.886 2453.43)">
      <path id="Path_3409" data-name="Path 3409" d="M268.893,14.6h6.672l-8.917,16.472s-1.5-4.364-2.148-5.921" transform="translate(-253.337 -13.984)" fill="url(#linear-gradient)"/>
      <g id="Group_20" data-name="Group 20" transform="translate(17.202 0.616)">
        <path id="Path_3410" data-name="Path 3410" d="M407.6,34.967h5.026V14.6C412.622,25.244,408.149,34.967,407.6,34.967Z" transform="translate(-407.6 -14.6)" fill="url(#linear-gradient-2)"/>
      </g>
      <path id="Path_3411" data-name="Path 3411" d="M13.311,17.088H9.162L0,.616C1.625.409,4.87.131,6.478,0Z" transform="translate(0)" fill="url(#linear-gradient-3)"/>
      <path id="Path_3412" data-name="Path 3412" d="M5.313,250.8A34.01,34.01,0,0,1,0,261.355c4.566,0,5.55-.663,5.55-1.013v-9.128C5.469,251.079,5.393,250.939,5.313,250.8Z" transform="translate(0 -240.216)" fill="url(#linear-gradient-4)"/>
      <path id="Path_3413" data-name="Path 3413" d="M0,14.6V35.123A48.956,48.956,0,0,0,5.242,24.446C2.068,18.833,0,14.6,0,14.6Z" transform="translate(0 -13.984)" fill="url(#linear-gradient-5)"/>
      <path id="Path_3414" data-name="Path 3414" d="M399.4,253.688l.346.806V243.8l-.346.578" transform="translate(-382.544 -233.511)" fill="url(#linear-gradient-6)"/>
      <path id="Path_3415" data-name="Path 3415" d="M407.2,24.294V34.933l.013.034c.359,0,5.026-11.513,5.026-20.367C412.239,14.6,409.39,20.542,407.2,24.294Z" transform="translate(-390.015 -13.984)" fill="url(#linear-gradient-7)"/>
    </g>
  </g>
</svg>
