<svg id="surface9044279" xmlns="http://www.w3.org/2000/svg" width="36" height="36" viewBox="0 0 36 36">
  <path id="Path_22" data-name="Path 22" d="M6,10a4,4,0,0,1,4-4H38a4,4,0,0,1,4,4V38a4,4,0,0,1-4,4H10a4,4,0,0,1-4-4Zm0,0" transform="translate(-6 -6)" fill="#e040fb"/>
  <path id="Path_23" data-name="Path 23" d="M9,9V39H39V9ZM21.016,19.176h-2v4.434h1.973a1.562,1.562,0,0,0,1.269-.539,2.366,2.366,0,0,0,.449-1.562,2.805,2.805,0,0,0-.461-1.7A1.464,1.464,0,0,0,21.016,19.176Zm3.348,5.613A4.692,4.692,0,0,1,20.93,26H19.016v5H16V16.781h4.988a4.446,4.446,0,0,1,3.363,1.309,4.7,4.7,0,0,1,1.254,3.4A4.4,4.4,0,0,1,24.363,24.789ZM33.2,23.1l-.9-.1a1.353,1.353,0,0,0-1.5,1v7H28V20.4h2.6l.1,1.1a1.885,1.885,0,0,1,1.8-1.3,1.921,1.921,0,0,1,.8.1Zm0,0" transform="translate(-6 -6)" fill="#020f16"/>
</svg>
