<svg xmlns="http://www.w3.org/2000/svg" width="19.29" height="19.29" viewBox="0 0 19.29 19.29">
  <path id="Icon_awesome-twitter-square" data-name="Icon awesome-twitter-square" d="M17.223,2.25H2.067A2.067,2.067,0,0,0,0,4.317V19.473A2.067,2.067,0,0,0,2.067,21.54H17.223a2.067,2.067,0,0,0,2.067-2.067V4.317A2.067,2.067,0,0,0,17.223,2.25ZM15.118,9.088c.009.121.009.245.009.366a7.98,7.98,0,0,1-8.035,8.035,8,8,0,0,1-4.336-1.266,5.949,5.949,0,0,0,.68.034,5.662,5.662,0,0,0,3.5-1.206A2.828,2.828,0,0,1,4.3,13.092a3.044,3.044,0,0,0,1.275-.052,2.824,2.824,0,0,1-2.261-2.773v-.034a2.822,2.822,0,0,0,1.275.357A2.818,2.818,0,0,1,3.333,8.239a2.789,2.789,0,0,1,.383-1.425A8.018,8.018,0,0,0,9.537,9.768a2.83,2.83,0,0,1,4.818-2.579,5.534,5.534,0,0,0,1.791-.68,2.817,2.817,0,0,1-1.24,1.554,5.62,5.62,0,0,0,1.628-.439A5.944,5.944,0,0,1,15.118,9.088Z" transform="translate(0 -2.25)" fill="#f6f6f6"/>
</svg>
