<svg id="icons8-adobe-xd" xmlns="http://www.w3.org/2000/svg" width="36" height="36" viewBox="0 0 36 36">
  <path id="Path_24" data-name="Path 24" d="M6,10a4,4,0,0,1,4-4H38a4,4,0,0,1,4,4V38a4,4,0,0,1-4,4H10a4,4,0,0,1-4-4Z" transform="translate(-6 -6)" fill="#ff41c8"/>
  <path id="Path_25" data-name="Path 25" d="M9,9V39H39V9ZM19.093,21.695l1.914-4.883H24.3l-3.34,7.051,3.418,7.168h-3.33L19.093,26.06,17.15,31.031H13.82l3.418-7.168-3.35-7.051h3.291Zm5.976,3.731a6.9,6.9,0,0,1,.879-3.877,2.909,2.909,0,0,1,2.559-1.279,2.468,2.468,0,0,1,2.031,1.055V16.032h2.783v15h-2.51l-.127-1.074a2.545,2.545,0,0,1-2.188,1.27,2.885,2.885,0,0,1-2.534-1.27,6.674,6.674,0,0,1-.894-3.73v-.8Zm2.774.693a5.032,5.032,0,0,0,.332,2.183,1.172,1.172,0,0,0,1.123.62,1.347,1.347,0,0,0,1.24-.732V23.366a1.316,1.316,0,0,0-1.23-.781,1.188,1.188,0,0,0-1.113.615,4.8,4.8,0,0,0-.352,2.188Z" transform="translate(-6 -6)" fill="#16020b"/>
</svg>
